# xmcd CD database file
#
# Track frame offsets:
#	150
#	16880
#	30202
#	47046
#	64433
#	80086
#	91619
#	106407
#	122917
#	132818
#	156848
#	169644
#	186027
#	200742
#	216602
#	222085
#	238141
#
# Disc length: 3365 seconds
#
# Revision: 0
# Processed by: cddbd v1.5.2PL0 Copyright (c) Steve Scherf et al.
# Submitted via: CDex 1.79
#
DISCID=ef0d2311
DTITLE=Tim Fatchen - Flying Tadpole's Travelling Blues Band
DYEAR=2019
DGENRE=Blues
TTITLE0=Flying Tadpole's Travelling Blues Band
TTITLE1=Cats of Utah
TTITLE2=Chicken on My Way to Freedom
TTITLE3=Motorcycle Love
TTITLE4=Storm So Bad
TTITLE5=Coffee Coffee
TTITLE6=Globalstar Camel
TTITLE7=I'm a Believer (Credulous Nerd)
TTITLE8=Creative Obsession
TTITLE9=Got My Dashcam Working
TTITLE10=Loose Dollars
TTITLE11=Trolleys Outside Our Gate
TTITLE12=Racing the Thunderstorms
TTITLE13=Raining on the Dog and Me
TTITLE14=Never Going Back
TTITLE15=Byron Bay
TTITLE16=Blue Endnote
EXTD=YEAR: 2019
EXTT0=
EXTT1=
EXTT2=
EXTT3=
EXTT4=
EXTT5=
EXTT6=
EXTT7=
EXTT8=
EXTT9=
EXTT10=
EXTT11=
EXTT12=
EXTT13=
EXTT14=
EXTT15=
EXTT16=
PLAYORDER=
